HIERARCHY
ROOT hip
{
  OFFSET 0 0 0
  CHANNELS 6 Xposition Yposition Zposition Zrotation Yrotation Xrotation
  JOINT abdomen
  {
    OFFSET 0 20.6881 -0.73152
    CHANNELS 3 Zrotation Xrotation Yrotation
    JOINT chest
    {
      OFFSET 0 11.7043 -0.48768
      CHANNELS 3 Zrotation Xrotation Yrotation
      JOINT neck
      {
        OFFSET 0 22.1894 -2.19456
        CHANNELS 3 Zrotation Xrotation Yrotation
        JOINT head
        {
          OFFSET -0.24384 7.07133 1.2192
          CHANNELS 3 Zrotation Xrotation Yrotation
          JOINT leftEye
          {
            OFFSET 4.14528 8.04674 8.04672
            CHANNELS 3 Zrotation Xrotation Yrotation
            End Site
            {
              OFFSET 1 0 0
            }
          }
          JOINT rightEye
          {
            OFFSET -3.6576 8.04674 8.04672
            CHANNELS 3 Zrotation Xrotation Yrotation
            End Site
            {
              OFFSET 1 0 0
            }
          }
        }
      }
      JOINT rCollar
      {
        OFFSET -2.68224 19.2634 -4.8768
        CHANNELS 3 Zrotation Xrotation Yrotation
        JOINT rShldr
        {
          OFFSET -8.77824 -1.95073 1.46304
          CHANNELS 3 Zrotation Xrotation Yrotation
          JOINT rForeArm
          {
            OFFSET -28.1742 -1.7115 0.48768
            CHANNELS 3 Zrotation Xrotation Yrotation
            JOINT rHand
            {
              OFFSET -22.5879 0.773209 7.07136
              CHANNELS 3 Zrotation Xrotation Yrotation
              JOINT rThumb1
              {
                OFFSET -1.2192 -0.487915 3.41376
                CHANNELS 3 Zrotation Xrotation Yrotation
                JOINT rThumb2
                {
                  OFFSET -3.37035 -0.52449 3.41376
                  CHANNELS 3 Zrotation Xrotation Yrotation
                  End Site
                  {
                    OFFSET -1.78271 -1.18214 1.43049
                  }
                }
              }
              JOINT rIndex1
              {
                OFFSET -7.75947 0.938293 5.60832
                CHANNELS 3 Zrotation Xrotation Yrotation
                JOINT rIndex2
                {
                  OFFSET -2.54057 -0.884171 1.56538
                  CHANNELS 3 Zrotation Xrotation Yrotation
                  End Site
                  {
                    OFFSET -1.62519 -0.234802 1.16502
                  }
                }
              }
              JOINT rMid1
              {
                OFFSET -8.24714 1.18213 3.41376
                CHANNELS 3 Zrotation Xrotation Yrotation
                JOINT rMid2
                {
                  OFFSET -3.10165 -0.590103 1.0647
                  CHANNELS 3 Zrotation Xrotation Yrotation
                  End Site
                  {
                    OFFSET -2.48547 -0.328903 0.83742
                  }
                }
              }
              JOINT rRing1
              {
                OFFSET -8.82822 0.546677 1.51678
                CHANNELS 3 Zrotation Xrotation Yrotation
                JOINT rRing2
                {
                  OFFSET -2.60934 -0.819778 -0.0198488
                  CHANNELS 3 Zrotation Xrotation Yrotation
                  End Site
                  {
                    OFFSET -2.33842 -0.294052 0.168128
                  }
                }
              }
              JOINT rPinky1
              {
                OFFSET -8.27202 -0.0477905 -0.4584
                CHANNELS 3 Zrotation Xrotation Yrotation
                JOINT rPinky2
                {
                  OFFSET -1.82734 -0.647385 -0.700984
                  CHANNELS 3 Zrotation Xrotation Yrotation
                  End Site
                  {
                    OFFSET -1.69225 -0.51767 -0.607171
                  }
                }
              }
            }
          }
        }
      }
      JOINT lCollar
      {
        OFFSET 2.68224 19.2634 -4.8768
        CHANNELS 3 Zrotation Xrotation Yrotation
        JOINT lShldr
        {
          OFFSET 8.77824 -1.95073 1.46304
          CHANNELS 3 Zrotation Xrotation Yrotation
          JOINT lForeArm
          {
            OFFSET 28.1742 -1.7115 0.48768
            CHANNELS 3 Zrotation Xrotation Yrotation
            JOINT lHand
            {
              OFFSET 22.5879 0.773209 7.07136
              CHANNELS 3 Zrotation Xrotation Yrotation
              JOINT lThumb1
              {
                OFFSET 1.2192 -0.487915 3.41376
                CHANNELS 3 Zrotation Xrotation Yrotation
                JOINT lThumb2
                {
                  OFFSET 3.37035 -0.52449 3.41376
                  CHANNELS 3 Zrotation Xrotation Yrotation
                  End Site
                  {
                    OFFSET 1.78271 -1.18214 1.43049
                  }
                }
              }
              JOINT lIndex1
              {
                OFFSET 7.75947 0.938293 5.60832
                CHANNELS 3 Zrotation Xrotation Yrotation
                JOINT lIndex2
                {
                  OFFSET 2.54057 -0.884171 1.56538
                  CHANNELS 3 Zrotation Xrotation Yrotation
                  End Site
                  {
                    OFFSET 1.62519 -0.234802 1.16502
                  }
                }
              }
              JOINT lMid1
              {
                OFFSET 8.24714 1.18213 3.41376
                CHANNELS 3 Zrotation Xrotation Yrotation
                JOINT lMid2
                {
                  OFFSET 3.10165 -0.590103 1.0647
                  CHANNELS 3 Zrotation Xrotation Yrotation
                  End Site
                  {
                    OFFSET 2.48547 -0.328903 0.83742
                  }
                }
              }
              JOINT lRing1
              {
                OFFSET 8.82822 0.546677 1.51678
                CHANNELS 3 Zrotation Xrotation Yrotation
                JOINT lRing2
                {
                  OFFSET 2.60934 -0.819778 -0.0198488
                  CHANNELS 3 Zrotation Xrotation Yrotation
                  End Site
                  {
                    OFFSET 2.33842 -0.294052 0.168128
                  }
                }
              }
              JOINT lPinky1
              {
                OFFSET 8.27202 -0.0477905 -0.4584
                CHANNELS 3 Zrotation Xrotation Yrotation
                JOINT lPinky2
                {
                  OFFSET 1.82734 -0.647385 -0.700984
                  CHANNELS 3 Zrotation Xrotation Yrotation
                  End Site
                  {
                    OFFSET 1.69225 -0.51767 -0.607171
                  }
                }
              }
            }
          }
        }
      }
    }
  }
  JOINT rButtock
  {
    OFFSET -8.77824 4.35084 1.2192
    CHANNELS 3 Zrotation Xrotation Yrotation
    JOINT rThigh
    {
      OFFSET 0 -1.70687 -2.19456
      CHANNELS 3 Zrotation Xrotation Yrotation
      JOINT rShin
      {
        OFFSET 0 -36.8199 0.73152
        CHANNELS 3 Zrotation Xrotation Yrotation
        JOINT rFoot
        {
          OFFSET 0.73152 -45.1104 -5.12064
          CHANNELS 3 Zrotation Xrotation Yrotation
          End Site
          {
            OFFSET -1.1221 -3.69964 12.103
          }
        }
      }
    }
  }
  JOINT lButtock
  {
    OFFSET 8.77824 4.35084 1.2192
    CHANNELS 3 Zrotation Xrotation Yrotation
    JOINT lThigh
    {
      OFFSET 0 -1.70687 -2.19456
      CHANNELS 3 Zrotation Xrotation Yrotation
      JOINT lShin
      {
        OFFSET 0 -36.8199 0.73152
        CHANNELS 3 Zrotation Xrotation Yrotation
        JOINT lFoot
        {
          OFFSET -0.73152 -45.1104 -5.12064
          CHANNELS 3 Zrotation Xrotation Yrotation
          End Site
          {
            OFFSET 1.1221 -3.69964 12.103
          }
        }
      }
    }
  }
}
MOTION
Frames:	5
Frame Time:	0.00833333
-30.9937 30.9942 -17.4343 -14.5032 72.608 -13.8474 25.0889 77.0402 -33.7275 5.87 -7.29789 -0.930685 -6.08737 23.8891 -20.799 17.6693 -44.1707 -37.2404 -0.0 0.0 0.0 -0.0 0.0 0.0 1.05449e-12 -1.2153e-12 -3.81313e-13 62.1667 11.0213 7.97955 -28.4321 -35.9288 76.8903 -0.432584 -18.3698 -2.67493 2.32677e-09 8.7182e-09 -1.13476e-09 4.05366e-09 1.50393e-08 -1.94078e-09 2.32678e-09 8.71819e-09 -1.13477e-09 7.73091 5.47488 0.417314 2.32677e-09 8.71819e-09 -1.13476e-09 2.90554 0.965183 0.102902 2.32678e-09 8.7182e-09 -1.13476e-09 10.2786 0.731801 0.0259123 2.32677e-09 8.7182e-09 -1.13475e-09 2.22167 -0.733487 -0.20892 1.05433e-12 -1.21534e-12 -3.81514e-13 -18.3945 -5.13716 -4.61517 28.329 -33.2144 -72.418 0.0164407 -3.62233 0.509796 -3.47626e-09 -6.15546e-09 1.40996e-08 -6.05158e-09 -1.066e-08 2.43698e-08 -3.47626e-09 -6.15546e-09 1.40996e-08 -7.73091 5.47488 -0.417314 -3.47626e-09 -6.15546e-09 1.40996e-08 -2.90554 0.965183 -0.102902 -3.47626e-09 -6.15546e-09 1.40996e-08 -10.2786 0.731801 -0.0259123 -3.47625e-09 -6.15546e-09 1.40996e-08 -2.22167 -0.733487 0.20892 -2.03217e-16 0.0 -3.88251e-19 -125.953 -45.9265 -96.5242 -177.133 60.1126 179.066 5.72178 -8.86602 8.52512 2.03217e-16 0.0 3.88251e-19 138.713 -39.5121 93.0767 177.103 49.5313 -176.668 -29.1586 -5.94298 -44.993
-31.085 30.8939 -17.0176 -13.247 72.9139 -12.548 25.9892 77.048 -34.8582 5.82238 -7.32708 -1.00703 -5.99229 23.9075 -20.9693 17.4986 -44.0509 -37.65 -0.0 0.0 0.0 -0.0 0.0 0.0 1.1457e-12 -1.50163e-12 -3.16307e-13 62.1757 10.8057 8.19627 -28.4314 -35.9889 76.9911 -0.438306 -18.4854 -2.693 2.14747e-09 1.27137e-08 -3.25929e-09 3.77221e-09 2.19526e-08 -5.61208e-09 2.14748e-09 1.27137e-08 -3.2593e-09 7.73091 5.47488 0.417314 2.14747e-09 1.27137e-08 -3.25929e-09 2.90554 0.965183 0.102902 2.14747e-09 1.27137e-08 -3.25929e-09 10.2786 0.731801 0.0259123 2.14747e-09 1.27137e-08 -3.25928e-09 2.22167 -0.733487 -0.20892 1.14556e-12 -1.50161e-12 -3.16512e-13 -18.2298 -4.82227 -4.46942 28.3238 -33.1512 -72.3148 0.0155196 -3.51908 0.495227 -4.21958e-09 -7.6197e-09 1.38345e-08 -7.33327e-09 -1.31925e-08 2.39107e-08 -4.21958e-09 -7.6197e-09 1.38345e-08 -7.73091 5.47488 -0.417314 -4.21957e-09 -7.61971e-09 1.38345e-08 -2.90554 0.965183 -0.102902 -4.21958e-09 -7.61971e-09 1.38345e-08 -10.2786 0.731801 -0.0259123 -4.21957e-09 -7.6197e-09 1.38345e-08 -2.22167 -0.733487 0.20892 -2.03217e-16 0.0 -3.88251e-19 -126.924 -45.3364 -97.4067 -177.187 59.2546 179.156 5.40148 -9.12068 7.69456 2.03217e-16 0.0 3.88251e-19 138.3 -40.2467 92.807 177.087 49.9848 -176.65 -29.1839 -6.50249 -44.8471
-31.1934 30.8104 -16.5987 -12.0714 73.2097 -11.2517 26.9137 77.0025 -35.9738 5.76954 -7.35365 -1.08275 -5.90108 23.9273 -21.132 17.3307 -43.9526 -38.0427 -0.0 0.0 0.0 -0.0 0.0 0.0 1.1738e-12 -1.72455e-12 -2.24271e-13 62.1764 10.6018 8.39808 -28.4307 -36.0487 77.0912 -0.445597 -18.6314 -2.71586 1.80335e-09 1.62872e-08 -5.40971e-09 3.20499e-09 2.81386e-08 -9.32947e-09 1.80336e-09 1.62872e-08 -5.40973e-09 7.73091 5.47488 0.417314 1.80335e-09 1.62872e-08 -5.40971e-09 2.90554 0.965183 0.102902 1.80336e-09 1.62872e-08 -5.40971e-09 10.2786 0.731801 0.0259123 1.80336e-09 1.62872e-08 -5.4097e-09 2.22167 -0.733487 -0.20892 1.17368e-12 -1.72447e-12 -2.24476e-13 -18.1192 -4.5156 -4.33927 28.3174 -33.0777 -72.1949 0.0150647 -3.48759 0.490771 -4.76519e-09 -8.70285e-09 1.25836e-08 -8.26986e-09 -1.50647e-08 2.17475e-08 -4.7652e-09 -8.70285e-09 1.25837e-08 -7.73091 5.47488 -0.417314 -4.76519e-09 -8.70285e-09 1.25836e-08 -2.90554 0.965183 -0.102902 -4.7652e-09 -8.70285e-09 1.25836e-08 -10.2786 0.731801 -0.0259123 -4.76519e-09 -8.70285e-09 1.25836e-08 -2.22167 -0.733487 0.20892 -2.03217e-16 0.0 -3.88251e-19 -127.862 -44.7277 -98.3222 -177.236 58.4228 179.244 5.05261 -9.30934 6.84767 2.03217e-16 0.0 3.88251e-19 137.881 -41.0255 92.5728 177.069 50.4767 -176.635 -29.1716 -7.09148 -44.6601
-31.3189 30.7423 -16.1786 -10.9294 73.4904 -9.9129 27.6789 76.9055 -36.9212 5.72802 -7.36184 -1.15735 -5.8091 23.9522 -21.2824 17.1598 -43.9026 -38.4111 -0.0 0.0 0.0 -0.0 0.0 0.0 1.13237e-12 -1.76685e-12 -1.58879e-13 62.1596 10.4231 8.58935 -28.4298 -36.1103 77.1943 -0.45335 -18.7858 -2.74007 1.47277e-09 1.75469e-08 -6.48221e-09 2.6459e-09 3.0322e-08 -1.11846e-08 1.47278e-09 1.75469e-08 -6.48222e-09 7.73091 5.47488 0.417314 1.47277e-09 1.75469e-08 -6.48221e-09 2.90554 0.965183 0.102902 1.47277e-09 1.75469e-08 -6.4822e-09 10.2786 0.731801 0.0259123 1.47277e-09 1.75469e-08 -6.4822e-09 2.22167 -0.733487 -0.20892 1.13226e-12 -1.76674e-12 -1.59077e-13 -18.073 -4.24317 -4.21244 28.3102 -32.9964 -72.062 0.0149876 -3.49303 0.491528 -4.81815e-09 -8.76291e-09 1.08716e-08 -8.35465e-09 -1.51669e-08 1.8787e-08 -4.81816e-09 -8.7629e-09 1.08716e-08 -7.73091 5.47488 -0.417314 -4.81815e-09 -8.76291e-09 1.08716e-08 -2.90554 0.965183 -0.102902 -4.81816e-09 -8.76291e-09 1.08716e-08 -10.2786 0.731801 -0.0259123 -4.81815e-09 -8.7629e-09 1.08716e-08 -2.22167 -0.733487 0.20892 -2.03217e-16 0.0 -3.88251e-19 -128.79 -44.1234 -99.2375 -177.28 57.6385 179.325 4.74805 -9.46555 6.11541 2.03217e-16 0.0 3.88251e-19 137.453 -41.7906 92.3698 177.051 50.9965 -176.626 -29.1017 -7.64041 -44.4492
-31.4563 30.6953 -15.7623 -9.6951 73.7532 -8.4281 28.2054 76.7453 -37.624 5.69992 -7.34396 -1.23056 -5.71155 23.9863 -21.4209 16.976 -43.9144 -38.7596 -0.0 0.0 0.0 -0.0 0.0 0.0 9.73011e-13 -1.52493e-12 -1.28783e-13 62.1211 10.2701 8.77494 -28.4286 -36.1751 77.3028 -0.462515 -18.9675 -2.76861 1.1067e-09 1.52377e-08 -5.9667e-09 2.00263e-09 2.63326e-08 -1.02969e-08 1.10671e-09 1.52376e-08 -5.96671e-09 7.73091 5.47488 0.417314 1.1067e-09 1.52376e-08 -5.96669e-09 2.90554 0.965183 0.102902 1.10671e-09 1.52377e-08 -5.9667e-09 10.2786 0.731801 0.0259123 1.10671e-09 1.52377e-08 -5.96669e-09 2.22167 -0.733487 -0.20892 9.72908e-13 -1.52483e-12 -1.28963e-13 -18.0919 -4.00587 -4.08692 28.3019 -32.9074 -71.9176 0.0154756 -3.55228 0.499885 -4.07614e-09 -7.17246e-09 8.14825e-09 -7.06393e-09 -1.24135e-08 1.40782e-08 -4.07614e-09 -7.17246e-09 8.14827e-09 -7.73091 5.47488 -0.417314 -4.07613e-09 -7.17246e-09 8.14824e-09 -2.90554 0.965183 -0.102902 -4.07614e-09 -7.17246e-09 8.14825e-09 -10.2786 0.731801 -0.0259123 -4.07613e-09 -7.17246e-09 8.14824e-09 -2.22167 -0.733487 0.20892 -2.03217e-16 0.0 -3.88251e-19 -129.745 -43.5258 -100.182 -177.319 56.9018 179.398 4.50981 -9.57345 5.53941 2.03217e-16 0.0 3.88251e-19 137.042 -42.5307 92.2218 177.032 51.541 -176.626 -28.9688 -8.14306 -44.2103
